<?xml version="1.0" encoding="UTF-8"?>
<svg width="48px" height="48px" viewBox="0 0 48 48" version="1.1" xmlns="http://www.w3.org/2000/svg" xmlns:xlink="http://www.w3.org/1999/xlink">
    <!-- Generator: Sketch 61.2 (89653) - https://sketch.com -->
    <title>facebook-logo</title>
    <desc>Created with Sketch.</desc>
    <g id="Design-v2.1" stroke="none" stroke-width="1" fill="none" fill-rule="evenodd">
        <g id="Footer" transform="translate(-1264.000000, -20.000000)" fill="#FFFFFF" fill-rule="nonzero">
            <g id="facebook-logo" transform="translate(1264.000000, 20.000000)">
                <path d="M24,0 C10.7451253,0 0,10.7451253 0,24 C0,37.2548747 10.7451253,48 24,48 C37.2548747,48 48,37.2548747 48,24 C48,10.7451253 37.2548747,0 24,0 Z M33.1560921,12.2221995 L29.8366036,12.2236726 C27.233555,12.2236726 26.7302302,13.460624 26.7302302,15.2755396 L26.7302302,19.2775857 L32.9375754,19.2775857 L32.9346292,25.545821 L26.7307212,25.545821 L26.7307212,41.6315908 L20.2562455,41.6315908 L20.2562455,25.545821 L14.8439079,25.545821 L14.8439079,19.2775857 L20.2562455,19.2775857 L20.2562455,14.6548542 C20.2562455,9.29014834 23.5339949,6.36840921 28.3192634,6.36840921 L33.1565831,6.37577494 L33.1565831,12.2221995 L33.1560921,12.2221995 Z" id="Shape"></path>
            </g>
        </g>
    </g>
</svg>