<?xml version="1.0" encoding="UTF-8"?>
<svg width="48px" height="48px" viewBox="0 0 48 48" version="1.1" xmlns="http://www.w3.org/2000/svg" xmlns:xlink="http://www.w3.org/1999/xlink">
    <!-- Generator: Sketch 61.2 (89653) - https://sketch.com -->
    <title>instagram-social-network-logo-of-photo-camera</title>
    <desc>Created with Sketch.</desc>
    <g id="Design-v2.1" stroke="none" stroke-width="1" fill="none" fill-rule="evenodd">
        <g id="Footer" transform="translate(-1204.000000, -20.000000)" fill="#FFFFFF" fill-rule="nonzero">
            <g id="instagram-social-network-logo-of-photo-camera" transform="translate(1204.000000, 20.000000)">
                <ellipse id="Oval" cx="23.9725714" cy="23.8623673" rx="7.08489796" ry="6.86546939"></ellipse>
                <path d="M34.9386122,24.2453878 C34.9386122,30.1136327 30.028898,34.8700408 23.9725714,34.8700408 C17.9162449,34.8700408 13.0065306,30.1136327 13.0065306,24.2453878 C13.0065306,23.1937959 13.1652245,22.1779592 13.459102,21.218449 L10.2186122,21.218449 L10.2186122,36.1214694 C10.2186122,36.8933878 10.8494694,37.5237551 11.620898,37.5237551 L36.1885714,37.5237551 C36.9604898,37.5237551 37.5918367,36.8933878 37.5918367,36.1214694 L37.5918367,21.218449 L34.4860408,21.218449 C34.7794286,22.1779592 34.9386122,23.1937959 34.9386122,24.2453878 Z" id="Path"></path>
                <path d="M31.9993469,17.1967347 L35.9867755,17.1967347 C36.8605714,17.1967347 37.5746939,16.4826122 37.5746939,15.6088163 L37.5746939,11.8070204 C37.5746939,10.9327347 36.8605714,10.2186122 35.9867755,10.2186122 L31.9993469,10.2186122 C31.1250612,10.2186122 30.4109385,10.9327347 30.4109385,11.8070204 L30.4109385,15.6088163 C30.410449,16.4821224 31.1250612,17.1967347 31.9993469,17.1967347 Z" id="Path"></path>
                <path d="M23.9387755,0 C10.7177143,0 0,10.7177143 0,23.9387755 C0,37.1598367 10.7177143,47.877551 23.9387755,47.877551 C37.1598367,47.877551 47.877551,37.1598367 47.877551,23.9387755 C47.877551,10.7177143 37.1598367,0 23.9387755,0 Z M37.0506122,41.5792653 L10.8274286,41.5792653 C8.33583673,41.5792653 6.29877551,39.7351837 6.29877551,37.0515918 L6.29877551,10.8269388 C6.29877551,8.14236735 8.33583673,6.29877551 10.8274286,6.29877551 L37.0506122,6.29877551 C39.5417143,6.29877551 41.5792653,8.14236735 41.5792653,10.8269388 L41.5792653,37.0515918 C41.5792653,39.7351837 39.5412245,41.5792653 37.0506122,41.5792653 Z" id="Shape"></path>
            </g>
        </g>
    </g>
</svg>